<mxfile host="app.diagrams.net" modified="2022-09-04T18:17:58.172Z" agent="5.0 (Windows NT 10.0; Win64; x64) AppleWebKit/537.36 (KHTML, like Gecko) Chrome/104.0.0.0 Safari/537.36" etag="AZI667SUspwy4rDoAHCv" version="20.2.8" type="github">
  <diagram id="KPIulZrKjNoi2ViYfCE2" name="PÃ¡gina-1">
    <mxGraphModel dx="1582" dy="384" grid="1" gridSize="10" guides="1" tooltips="1" connect="1" arrows="1" fold="1" page="1" pageScale="1" pageWidth="827" pageHeight="1169" math="0" shadow="0">
      <root>
        <mxCell id="0" />
        <mxCell id="1" parent="0" />
        <mxCell id="Tl0cSTcsKH_NLsfrjkij-30" style="edgeStyle=orthogonalEdgeStyle;rounded=0;orthogonalLoop=1;jettySize=auto;html=1;exitX=0.75;exitY=1;exitDx=0;exitDy=0;entryX=0;entryY=0.5;entryDx=0;entryDy=0;endArrow=none;endFill=0;" edge="1" parent="1" source="Tl0cSTcsKH_NLsfrjkij-1" target="Tl0cSTcsKH_NLsfrjkij-28">
          <mxGeometry relative="1" as="geometry" />
        </mxCell>
        <mxCell id="Tl0cSTcsKH_NLsfrjkij-32" style="edgeStyle=orthogonalEdgeStyle;rounded=0;orthogonalLoop=1;jettySize=auto;html=1;exitX=0.25;exitY=1;exitDx=0;exitDy=0;entryX=0.5;entryY=0;entryDx=0;entryDy=0;endArrow=none;endFill=0;" edge="1" parent="1" source="Tl0cSTcsKH_NLsfrjkij-1" target="Tl0cSTcsKH_NLsfrjkij-31">
          <mxGeometry relative="1" as="geometry">
            <Array as="points">
              <mxPoint x="510" y="280" />
            </Array>
          </mxGeometry>
        </mxCell>
        <mxCell id="Tl0cSTcsKH_NLsfrjkij-171" style="edgeStyle=orthogonalEdgeStyle;rounded=0;orthogonalLoop=1;jettySize=auto;html=1;exitX=1;exitY=0;exitDx=0;exitDy=0;entryX=0;entryY=0.5;entryDx=0;entryDy=0;endArrow=none;endFill=0;" edge="1" parent="1" source="Tl0cSTcsKH_NLsfrjkij-1" target="Tl0cSTcsKH_NLsfrjkij-169">
          <mxGeometry relative="1" as="geometry" />
        </mxCell>
        <mxCell id="Tl0cSTcsKH_NLsfrjkij-173" style="edgeStyle=orthogonalEdgeStyle;rounded=0;orthogonalLoop=1;jettySize=auto;html=1;exitX=1;exitY=0.25;exitDx=0;exitDy=0;entryX=0;entryY=0.5;entryDx=0;entryDy=0;endArrow=none;endFill=0;" edge="1" parent="1" source="Tl0cSTcsKH_NLsfrjkij-1" target="Tl0cSTcsKH_NLsfrjkij-170">
          <mxGeometry relative="1" as="geometry" />
        </mxCell>
        <mxCell id="Tl0cSTcsKH_NLsfrjkij-1" value="Turma" style="whiteSpace=wrap;html=1;align=center;" vertex="1" parent="1">
          <mxGeometry x="470" y="240" width="100" height="40" as="geometry" />
        </mxCell>
        <mxCell id="Tl0cSTcsKH_NLsfrjkij-2" value="Aluno" style="whiteSpace=wrap;html=1;align=center;" vertex="1" parent="1">
          <mxGeometry x="-30" y="280" width="100" height="40" as="geometry" />
        </mxCell>
        <mxCell id="Tl0cSTcsKH_NLsfrjkij-14" style="edgeStyle=orthogonalEdgeStyle;rounded=0;orthogonalLoop=1;jettySize=auto;html=1;exitX=0.25;exitY=0;exitDx=0;exitDy=0;entryX=1;entryY=0.5;entryDx=0;entryDy=0;endArrow=none;endFill=0;" edge="1" parent="1" source="Tl0cSTcsKH_NLsfrjkij-4" target="Tl0cSTcsKH_NLsfrjkij-13">
          <mxGeometry relative="1" as="geometry" />
        </mxCell>
        <mxCell id="Tl0cSTcsKH_NLsfrjkij-167" style="edgeStyle=orthogonalEdgeStyle;rounded=0;orthogonalLoop=1;jettySize=auto;html=1;exitX=1;exitY=0;exitDx=0;exitDy=0;entryX=0.278;entryY=0.038;entryDx=0;entryDy=0;entryPerimeter=0;endArrow=none;endFill=0;" edge="1" parent="1" source="Tl0cSTcsKH_NLsfrjkij-4" target="Tl0cSTcsKH_NLsfrjkij-165">
          <mxGeometry relative="1" as="geometry" />
        </mxCell>
        <mxCell id="Tl0cSTcsKH_NLsfrjkij-168" style="edgeStyle=orthogonalEdgeStyle;rounded=0;orthogonalLoop=1;jettySize=auto;html=1;exitX=1;exitY=0.75;exitDx=0;exitDy=0;entryX=0;entryY=0.5;entryDx=0;entryDy=0;endArrow=none;endFill=0;" edge="1" parent="1" source="Tl0cSTcsKH_NLsfrjkij-4" target="Tl0cSTcsKH_NLsfrjkij-166">
          <mxGeometry relative="1" as="geometry" />
        </mxCell>
        <mxCell id="Tl0cSTcsKH_NLsfrjkij-4" value="Departamento" style="whiteSpace=wrap;html=1;align=center;" vertex="1" parent="1">
          <mxGeometry x="670" y="80" width="100" height="40" as="geometry" />
        </mxCell>
        <mxCell id="Tl0cSTcsKH_NLsfrjkij-35" style="edgeStyle=orthogonalEdgeStyle;rounded=0;orthogonalLoop=1;jettySize=auto;html=1;exitX=0.5;exitY=1;exitDx=0;exitDy=0;entryX=0.5;entryY=0;entryDx=0;entryDy=0;endArrow=none;endFill=0;" edge="1" parent="1" source="Tl0cSTcsKH_NLsfrjkij-5" target="Tl0cSTcsKH_NLsfrjkij-34">
          <mxGeometry relative="1" as="geometry" />
        </mxCell>
        <mxCell id="Tl0cSTcsKH_NLsfrjkij-59" style="edgeStyle=orthogonalEdgeStyle;rounded=0;orthogonalLoop=1;jettySize=auto;html=1;exitX=0.25;exitY=0;exitDx=0;exitDy=0;entryX=1;entryY=0.5;entryDx=0;entryDy=0;endArrow=none;endFill=0;" edge="1" parent="1" source="Tl0cSTcsKH_NLsfrjkij-5" target="Tl0cSTcsKH_NLsfrjkij-17">
          <mxGeometry relative="1" as="geometry" />
        </mxCell>
        <mxCell id="Tl0cSTcsKH_NLsfrjkij-5" value="Matricula" style="whiteSpace=wrap;html=1;align=center;" vertex="1" parent="1">
          <mxGeometry x="155" y="245" width="100" height="40" as="geometry" />
        </mxCell>
        <mxCell id="Tl0cSTcsKH_NLsfrjkij-27" style="edgeStyle=orthogonalEdgeStyle;rounded=0;orthogonalLoop=1;jettySize=auto;html=1;exitX=0.75;exitY=1;exitDx=0;exitDy=0;entryX=0.5;entryY=0;entryDx=0;entryDy=0;endArrow=none;endFill=0;" edge="1" parent="1" source="Tl0cSTcsKH_NLsfrjkij-6" target="Tl0cSTcsKH_NLsfrjkij-26">
          <mxGeometry relative="1" as="geometry">
            <Array as="points">
              <mxPoint x="520" y="120" />
            </Array>
          </mxGeometry>
        </mxCell>
        <mxCell id="Tl0cSTcsKH_NLsfrjkij-6" value="Disciplina" style="whiteSpace=wrap;html=1;align=center;" vertex="1" parent="1">
          <mxGeometry x="440" y="80" width="100" height="40" as="geometry" />
        </mxCell>
        <mxCell id="Tl0cSTcsKH_NLsfrjkij-7" value="Professor" style="whiteSpace=wrap;html=1;align=center;" vertex="1" parent="1">
          <mxGeometry x="460" y="390" width="100" height="40" as="geometry" />
        </mxCell>
        <mxCell id="Tl0cSTcsKH_NLsfrjkij-8" value="Funcionario" style="whiteSpace=wrap;html=1;align=center;" vertex="1" parent="1">
          <mxGeometry x="155" y="480" width="100" height="40" as="geometry" />
        </mxCell>
        <mxCell id="Tl0cSTcsKH_NLsfrjkij-29" style="edgeStyle=orthogonalEdgeStyle;rounded=0;orthogonalLoop=1;jettySize=auto;html=1;exitX=0.5;exitY=0;exitDx=0;exitDy=0;entryX=1;entryY=0.5;entryDx=0;entryDy=0;endArrow=none;endFill=0;" edge="1" parent="1" source="Tl0cSTcsKH_NLsfrjkij-9" target="Tl0cSTcsKH_NLsfrjkij-28">
          <mxGeometry relative="1" as="geometry" />
        </mxCell>
        <mxCell id="Tl0cSTcsKH_NLsfrjkij-164" style="edgeStyle=orthogonalEdgeStyle;rounded=0;orthogonalLoop=1;jettySize=auto;html=1;exitX=1;exitY=0.75;exitDx=0;exitDy=0;entryX=0;entryY=0.5;entryDx=0;entryDy=0;endArrow=none;endFill=0;" edge="1" parent="1" source="Tl0cSTcsKH_NLsfrjkij-9" target="Tl0cSTcsKH_NLsfrjkij-161">
          <mxGeometry relative="1" as="geometry" />
        </mxCell>
        <mxCell id="Tl0cSTcsKH_NLsfrjkij-9" value="Sala" style="whiteSpace=wrap;html=1;align=center;" vertex="1" parent="1">
          <mxGeometry x="660" y="380" width="100" height="40" as="geometry" />
        </mxCell>
        <mxCell id="Tl0cSTcsKH_NLsfrjkij-15" style="edgeStyle=orthogonalEdgeStyle;rounded=0;orthogonalLoop=1;jettySize=auto;html=1;exitX=0;exitY=0.5;exitDx=0;exitDy=0;entryX=0.839;entryY=0.007;entryDx=0;entryDy=0;entryPerimeter=0;endArrow=none;endFill=0;" edge="1" parent="1" source="Tl0cSTcsKH_NLsfrjkij-13" target="Tl0cSTcsKH_NLsfrjkij-6">
          <mxGeometry relative="1" as="geometry" />
        </mxCell>
        <mxCell id="Tl0cSTcsKH_NLsfrjkij-13" value="" style="shape=rhombus;perimeter=rhombusPerimeter;whiteSpace=wrap;html=1;align=center;" vertex="1" parent="1">
          <mxGeometry x="590" y="30" width="30" height="20" as="geometry" />
        </mxCell>
        <mxCell id="Tl0cSTcsKH_NLsfrjkij-19" style="edgeStyle=orthogonalEdgeStyle;rounded=0;orthogonalLoop=1;jettySize=auto;html=1;exitX=0;exitY=0.5;exitDx=0;exitDy=0;entryX=0.75;entryY=0;entryDx=0;entryDy=0;endArrow=none;endFill=0;" edge="1" parent="1" source="Tl0cSTcsKH_NLsfrjkij-17" target="Tl0cSTcsKH_NLsfrjkij-2">
          <mxGeometry relative="1" as="geometry" />
        </mxCell>
        <mxCell id="Tl0cSTcsKH_NLsfrjkij-17" value="" style="shape=rhombus;perimeter=rhombusPerimeter;whiteSpace=wrap;html=1;align=center;" vertex="1" parent="1">
          <mxGeometry x="85" y="210" width="30" height="20" as="geometry" />
        </mxCell>
        <mxCell id="Tl0cSTcsKH_NLsfrjkij-40" style="edgeStyle=orthogonalEdgeStyle;rounded=0;orthogonalLoop=1;jettySize=auto;html=1;exitX=0.5;exitY=1;exitDx=0;exitDy=0;entryX=0.5;entryY=0;entryDx=0;entryDy=0;endArrow=none;endFill=0;" edge="1" parent="1" source="Tl0cSTcsKH_NLsfrjkij-26" target="Tl0cSTcsKH_NLsfrjkij-1">
          <mxGeometry relative="1" as="geometry" />
        </mxCell>
        <mxCell id="Tl0cSTcsKH_NLsfrjkij-26" value="" style="shape=rhombus;perimeter=rhombusPerimeter;whiteSpace=wrap;html=1;align=center;" vertex="1" parent="1">
          <mxGeometry x="505" y="170" width="30" height="20" as="geometry" />
        </mxCell>
        <mxCell id="Tl0cSTcsKH_NLsfrjkij-28" value="" style="shape=rhombus;perimeter=rhombusPerimeter;whiteSpace=wrap;html=1;align=center;" vertex="1" parent="1">
          <mxGeometry x="610" y="310" width="30" height="20" as="geometry" />
        </mxCell>
        <mxCell id="Tl0cSTcsKH_NLsfrjkij-33" style="edgeStyle=orthogonalEdgeStyle;rounded=0;orthogonalLoop=1;jettySize=auto;html=1;exitX=0.5;exitY=1;exitDx=0;exitDy=0;entryX=0.5;entryY=0;entryDx=0;entryDy=0;endArrow=none;endFill=0;" edge="1" parent="1" source="Tl0cSTcsKH_NLsfrjkij-31" target="Tl0cSTcsKH_NLsfrjkij-7">
          <mxGeometry relative="1" as="geometry" />
        </mxCell>
        <mxCell id="Tl0cSTcsKH_NLsfrjkij-31" value="" style="shape=rhombus;perimeter=rhombusPerimeter;whiteSpace=wrap;html=1;align=center;" vertex="1" parent="1">
          <mxGeometry x="495" y="340" width="30" height="20" as="geometry" />
        </mxCell>
        <mxCell id="Tl0cSTcsKH_NLsfrjkij-36" style="edgeStyle=orthogonalEdgeStyle;rounded=0;orthogonalLoop=1;jettySize=auto;html=1;exitX=0.5;exitY=1;exitDx=0;exitDy=0;endArrow=none;endFill=0;" edge="1" parent="1" source="Tl0cSTcsKH_NLsfrjkij-34" target="Tl0cSTcsKH_NLsfrjkij-8">
          <mxGeometry relative="1" as="geometry" />
        </mxCell>
        <mxCell id="Tl0cSTcsKH_NLsfrjkij-34" value="" style="shape=rhombus;perimeter=rhombusPerimeter;whiteSpace=wrap;html=1;align=center;" vertex="1" parent="1">
          <mxGeometry x="190" y="375" width="30" height="20" as="geometry" />
        </mxCell>
        <mxCell id="Tl0cSTcsKH_NLsfrjkij-199" style="edgeStyle=orthogonalEdgeStyle;rounded=0;orthogonalLoop=1;jettySize=auto;html=1;exitX=0.25;exitY=1;exitDx=0;exitDy=0;entryX=0.5;entryY=0;entryDx=0;entryDy=0;endArrow=none;endFill=0;" edge="1" parent="1" source="Tl0cSTcsKH_NLsfrjkij-42" target="Tl0cSTcsKH_NLsfrjkij-61">
          <mxGeometry relative="1" as="geometry" />
        </mxCell>
        <mxCell id="Tl0cSTcsKH_NLsfrjkij-42" value="Curso" style="whiteSpace=wrap;html=1;align=center;" vertex="1" parent="1">
          <mxGeometry x="165" y="40" width="100" height="40" as="geometry" />
        </mxCell>
        <mxCell id="Tl0cSTcsKH_NLsfrjkij-200" style="edgeStyle=orthogonalEdgeStyle;rounded=0;orthogonalLoop=1;jettySize=auto;html=1;exitX=0.5;exitY=1;exitDx=0;exitDy=0;endArrow=none;endFill=0;entryX=0.5;entryY=0;entryDx=0;entryDy=0;" edge="1" parent="1" source="Tl0cSTcsKH_NLsfrjkij-61" target="Tl0cSTcsKH_NLsfrjkij-5">
          <mxGeometry relative="1" as="geometry">
            <mxPoint x="230" y="210" as="targetPoint" />
          </mxGeometry>
        </mxCell>
        <mxCell id="Tl0cSTcsKH_NLsfrjkij-61" value="" style="shape=rhombus;perimeter=rhombusPerimeter;whiteSpace=wrap;html=1;align=center;" vertex="1" parent="1">
          <mxGeometry x="190" y="150" width="30" height="20" as="geometry" />
        </mxCell>
        <mxCell id="Tl0cSTcsKH_NLsfrjkij-64" value="N" style="text;html=1;align=center;verticalAlign=middle;resizable=0;points=[];autosize=1;strokeColor=none;fillColor=none;" vertex="1" parent="1">
          <mxGeometry x="20" y="225" width="30" height="30" as="geometry" />
        </mxCell>
        <mxCell id="Tl0cSTcsKH_NLsfrjkij-65" value="1" style="text;html=1;align=center;verticalAlign=middle;resizable=0;points=[];autosize=1;strokeColor=none;fillColor=none;" vertex="1" parent="1">
          <mxGeometry x="155" y="225" width="30" height="30" as="geometry" />
        </mxCell>
        <mxCell id="Tl0cSTcsKH_NLsfrjkij-66" value="N" style="text;html=1;align=center;verticalAlign=middle;resizable=0;points=[];autosize=1;strokeColor=none;fillColor=none;" vertex="1" parent="1">
          <mxGeometry x="200" y="225" width="30" height="30" as="geometry" />
        </mxCell>
        <mxCell id="Tl0cSTcsKH_NLsfrjkij-67" value="1" style="text;html=1;align=center;verticalAlign=middle;resizable=0;points=[];autosize=1;strokeColor=none;fillColor=none;" vertex="1" parent="1">
          <mxGeometry x="195" y="75" width="30" height="30" as="geometry" />
        </mxCell>
        <mxCell id="Tl0cSTcsKH_NLsfrjkij-72" value="1" style="text;html=1;align=center;verticalAlign=middle;resizable=0;points=[];autosize=1;strokeColor=none;fillColor=none;" vertex="1" parent="1">
          <mxGeometry x="510" y="120" width="30" height="30" as="geometry" />
        </mxCell>
        <mxCell id="Tl0cSTcsKH_NLsfrjkij-73" value="N" style="text;html=1;align=center;verticalAlign=middle;resizable=0;points=[];autosize=1;strokeColor=none;fillColor=none;" vertex="1" parent="1">
          <mxGeometry x="515" y="215" width="30" height="30" as="geometry" />
        </mxCell>
        <mxCell id="Tl0cSTcsKH_NLsfrjkij-74" value="N" style="text;html=1;align=center;verticalAlign=middle;resizable=0;points=[];autosize=1;strokeColor=none;fillColor=none;" vertex="1" parent="1">
          <mxGeometry x="515" y="55" width="30" height="30" as="geometry" />
        </mxCell>
        <mxCell id="Tl0cSTcsKH_NLsfrjkij-75" value="1" style="text;html=1;align=center;verticalAlign=middle;resizable=0;points=[];autosize=1;strokeColor=none;fillColor=none;" vertex="1" parent="1">
          <mxGeometry x="695" y="55" width="30" height="30" as="geometry" />
        </mxCell>
        <mxCell id="Tl0cSTcsKH_NLsfrjkij-76" value="1" style="text;html=1;align=center;verticalAlign=middle;resizable=0;points=[];autosize=1;strokeColor=none;fillColor=none;" vertex="1" parent="1">
          <mxGeometry x="505" y="365" width="30" height="30" as="geometry" />
        </mxCell>
        <mxCell id="Tl0cSTcsKH_NLsfrjkij-77" value="N" style="text;html=1;align=center;verticalAlign=middle;resizable=0;points=[];autosize=1;strokeColor=none;fillColor=none;" vertex="1" parent="1">
          <mxGeometry x="505" y="275" width="30" height="30" as="geometry" />
        </mxCell>
        <mxCell id="Tl0cSTcsKH_NLsfrjkij-78" value="1" style="text;html=1;align=center;verticalAlign=middle;resizable=0;points=[];autosize=1;strokeColor=none;fillColor=none;" vertex="1" parent="1">
          <mxGeometry x="705" y="355" width="30" height="30" as="geometry" />
        </mxCell>
        <mxCell id="Tl0cSTcsKH_NLsfrjkij-79" value="N" style="text;html=1;align=center;verticalAlign=middle;resizable=0;points=[];autosize=1;strokeColor=none;fillColor=none;" vertex="1" parent="1">
          <mxGeometry x="535" y="275" width="30" height="30" as="geometry" />
        </mxCell>
        <mxCell id="Tl0cSTcsKH_NLsfrjkij-80" value="1" style="text;html=1;align=center;verticalAlign=middle;resizable=0;points=[];autosize=1;strokeColor=none;fillColor=none;" vertex="1" parent="1">
          <mxGeometry x="195" y="455" width="30" height="30" as="geometry" />
        </mxCell>
        <mxCell id="Tl0cSTcsKH_NLsfrjkij-81" value="N" style="text;html=1;align=center;verticalAlign=middle;resizable=0;points=[];autosize=1;strokeColor=none;fillColor=none;" vertex="1" parent="1">
          <mxGeometry x="200" y="290" width="30" height="30" as="geometry" />
        </mxCell>
        <mxCell id="Tl0cSTcsKH_NLsfrjkij-82" value="N" style="text;html=1;align=center;verticalAlign=middle;resizable=0;points=[];autosize=1;strokeColor=none;fillColor=none;" vertex="1" parent="1">
          <mxGeometry x="470" y="60" width="30" height="30" as="geometry" />
        </mxCell>
        <mxCell id="Tl0cSTcsKH_NLsfrjkij-83" value="N" style="text;html=1;align=center;verticalAlign=middle;resizable=0;points=[];autosize=1;strokeColor=none;fillColor=none;" vertex="1" parent="1">
          <mxGeometry x="190" y="20" width="30" height="30" as="geometry" />
        </mxCell>
        <mxCell id="Tl0cSTcsKH_NLsfrjkij-109" style="edgeStyle=orthogonalEdgeStyle;rounded=0;orthogonalLoop=1;jettySize=auto;html=1;exitX=0;exitY=0.25;exitDx=0;exitDy=0;entryX=1;entryY=0.5;entryDx=0;entryDy=0;endArrow=none;endFill=0;" edge="1" parent="1" source="Tl0cSTcsKH_NLsfrjkij-104" target="Tl0cSTcsKH_NLsfrjkij-108">
          <mxGeometry relative="1" as="geometry">
            <Array as="points">
              <mxPoint x="335" y="30" />
              <mxPoint x="290" y="30" />
            </Array>
          </mxGeometry>
        </mxCell>
        <mxCell id="Tl0cSTcsKH_NLsfrjkij-104" value="Disc_Curso" style="whiteSpace=wrap;html=1;align=center;" vertex="1" parent="1">
          <mxGeometry x="328.5" y="10" width="100" height="40" as="geometry" />
        </mxCell>
        <mxCell id="Tl0cSTcsKH_NLsfrjkij-107" style="edgeStyle=orthogonalEdgeStyle;rounded=0;orthogonalLoop=1;jettySize=auto;html=1;exitX=0;exitY=0.5;exitDx=0;exitDy=0;entryX=1;entryY=0.5;entryDx=0;entryDy=0;endArrow=none;endFill=0;" edge="1" parent="1" source="Tl0cSTcsKH_NLsfrjkij-105" target="Tl0cSTcsKH_NLsfrjkij-104">
          <mxGeometry relative="1" as="geometry" />
        </mxCell>
        <mxCell id="Tl0cSTcsKH_NLsfrjkij-112" style="edgeStyle=orthogonalEdgeStyle;rounded=0;orthogonalLoop=1;jettySize=auto;html=1;exitX=0.5;exitY=1;exitDx=0;exitDy=0;entryX=0.5;entryY=0;entryDx=0;entryDy=0;endArrow=none;endFill=0;" edge="1" parent="1" source="Tl0cSTcsKH_NLsfrjkij-105" target="Tl0cSTcsKH_NLsfrjkij-6">
          <mxGeometry relative="1" as="geometry">
            <Array as="points">
              <mxPoint x="480" y="80" />
            </Array>
          </mxGeometry>
        </mxCell>
        <mxCell id="Tl0cSTcsKH_NLsfrjkij-105" value="" style="shape=rhombus;perimeter=rhombusPerimeter;whiteSpace=wrap;html=1;align=center;" vertex="1" parent="1">
          <mxGeometry x="465" y="20" width="30" height="20" as="geometry" />
        </mxCell>
        <mxCell id="Tl0cSTcsKH_NLsfrjkij-110" style="edgeStyle=orthogonalEdgeStyle;rounded=0;orthogonalLoop=1;jettySize=auto;html=1;exitX=0;exitY=0.5;exitDx=0;exitDy=0;entryX=0.5;entryY=0;entryDx=0;entryDy=0;endArrow=none;endFill=0;" edge="1" parent="1" source="Tl0cSTcsKH_NLsfrjkij-108" target="Tl0cSTcsKH_NLsfrjkij-42">
          <mxGeometry relative="1" as="geometry">
            <Array as="points">
              <mxPoint x="215" y="30" />
            </Array>
          </mxGeometry>
        </mxCell>
        <mxCell id="Tl0cSTcsKH_NLsfrjkij-108" value="" style="shape=rhombus;perimeter=rhombusPerimeter;whiteSpace=wrap;html=1;align=center;" vertex="1" parent="1">
          <mxGeometry x="260" y="20" width="30" height="20" as="geometry" />
        </mxCell>
        <mxCell id="Tl0cSTcsKH_NLsfrjkij-113" value="1" style="text;html=1;align=center;verticalAlign=middle;resizable=0;points=[];autosize=1;strokeColor=none;fillColor=none;" vertex="1" parent="1">
          <mxGeometry x="425" y="5" width="30" height="30" as="geometry" />
        </mxCell>
        <mxCell id="Tl0cSTcsKH_NLsfrjkij-114" value="1" style="text;html=1;align=center;verticalAlign=middle;resizable=0;points=[];autosize=1;strokeColor=none;fillColor=none;" vertex="1" parent="1">
          <mxGeometry x="305" y="5" width="30" height="30" as="geometry" />
        </mxCell>
        <mxCell id="Tl0cSTcsKH_NLsfrjkij-121" style="edgeStyle=orthogonalEdgeStyle;rounded=0;orthogonalLoop=1;jettySize=auto;html=1;exitX=1;exitY=0.5;exitDx=0;exitDy=0;entryX=0.322;entryY=-0.072;entryDx=0;entryDy=0;entryPerimeter=0;endArrow=none;endFill=0;" edge="1" parent="1" source="Tl0cSTcsKH_NLsfrjkij-115" target="Tl0cSTcsKH_NLsfrjkij-2">
          <mxGeometry relative="1" as="geometry" />
        </mxCell>
        <mxCell id="Tl0cSTcsKH_NLsfrjkij-115" value="&lt;b&gt;Id Aluno&lt;/b&gt;" style="ellipse;whiteSpace=wrap;html=1;align=center;" vertex="1" parent="1">
          <mxGeometry x="-160" y="215" width="100" height="40" as="geometry" />
        </mxCell>
        <mxCell id="Tl0cSTcsKH_NLsfrjkij-122" style="edgeStyle=orthogonalEdgeStyle;rounded=0;orthogonalLoop=1;jettySize=auto;html=1;exitX=1;exitY=0.5;exitDx=0;exitDy=0;entryX=0.25;entryY=0;entryDx=0;entryDy=0;endArrow=none;endFill=0;" edge="1" parent="1" source="Tl0cSTcsKH_NLsfrjkij-116" target="Tl0cSTcsKH_NLsfrjkij-2">
          <mxGeometry relative="1" as="geometry">
            <Array as="points">
              <mxPoint x="-5" y="275" />
            </Array>
          </mxGeometry>
        </mxCell>
        <mxCell id="Tl0cSTcsKH_NLsfrjkij-116" value="Nome" style="ellipse;whiteSpace=wrap;html=1;align=center;" vertex="1" parent="1">
          <mxGeometry x="-160" y="255" width="100" height="40" as="geometry" />
        </mxCell>
        <mxCell id="Tl0cSTcsKH_NLsfrjkij-123" style="edgeStyle=orthogonalEdgeStyle;rounded=0;orthogonalLoop=1;jettySize=auto;html=1;exitX=1;exitY=0.5;exitDx=0;exitDy=0;entryX=0;entryY=1;entryDx=0;entryDy=0;endArrow=none;endFill=0;" edge="1" parent="1" source="Tl0cSTcsKH_NLsfrjkij-117" target="Tl0cSTcsKH_NLsfrjkij-2">
          <mxGeometry relative="1" as="geometry" />
        </mxCell>
        <mxCell id="Tl0cSTcsKH_NLsfrjkij-117" value="CPF" style="ellipse;whiteSpace=wrap;html=1;align=center;" vertex="1" parent="1">
          <mxGeometry x="-160" y="295" width="100" height="40" as="geometry" />
        </mxCell>
        <mxCell id="Tl0cSTcsKH_NLsfrjkij-126" style="edgeStyle=orthogonalEdgeStyle;rounded=0;orthogonalLoop=1;jettySize=auto;html=1;exitX=1;exitY=0.5;exitDx=0;exitDy=0;endArrow=none;endFill=0;" edge="1" parent="1" source="Tl0cSTcsKH_NLsfrjkij-118">
          <mxGeometry relative="1" as="geometry">
            <mxPoint x="33" y="320" as="targetPoint" />
          </mxGeometry>
        </mxCell>
        <mxCell id="Tl0cSTcsKH_NLsfrjkij-118" value="Telefone" style="ellipse;whiteSpace=wrap;html=1;align=center;" vertex="1" parent="1">
          <mxGeometry x="-160" y="415" width="100" height="40" as="geometry" />
        </mxCell>
        <mxCell id="Tl0cSTcsKH_NLsfrjkij-124" style="edgeStyle=orthogonalEdgeStyle;rounded=0;orthogonalLoop=1;jettySize=auto;html=1;exitX=1;exitY=0.5;exitDx=0;exitDy=0;entryX=0.25;entryY=1;entryDx=0;entryDy=0;endArrow=none;endFill=0;" edge="1" parent="1" source="Tl0cSTcsKH_NLsfrjkij-119" target="Tl0cSTcsKH_NLsfrjkij-2">
          <mxGeometry relative="1" as="geometry" />
        </mxCell>
        <mxCell id="Tl0cSTcsKH_NLsfrjkij-119" value="E-mail" style="ellipse;whiteSpace=wrap;html=1;align=center;" vertex="1" parent="1">
          <mxGeometry x="-160" y="335" width="100" height="40" as="geometry" />
        </mxCell>
        <mxCell id="Tl0cSTcsKH_NLsfrjkij-125" style="edgeStyle=orthogonalEdgeStyle;rounded=0;orthogonalLoop=1;jettySize=auto;html=1;exitX=1;exitY=0.5;exitDx=0;exitDy=0;entryX=0.385;entryY=1.007;entryDx=0;entryDy=0;entryPerimeter=0;endArrow=none;endFill=0;" edge="1" parent="1" source="Tl0cSTcsKH_NLsfrjkij-120" target="Tl0cSTcsKH_NLsfrjkij-2">
          <mxGeometry relative="1" as="geometry" />
        </mxCell>
        <mxCell id="Tl0cSTcsKH_NLsfrjkij-120" value="EndereÃ§o" style="ellipse;whiteSpace=wrap;html=1;align=center;" vertex="1" parent="1">
          <mxGeometry x="-160" y="375" width="100" height="40" as="geometry" />
        </mxCell>
        <mxCell id="Tl0cSTcsKH_NLsfrjkij-144" style="edgeStyle=orthogonalEdgeStyle;rounded=0;orthogonalLoop=1;jettySize=auto;html=1;exitX=1;exitY=0;exitDx=0;exitDy=0;entryX=0;entryY=0.5;entryDx=0;entryDy=0;endArrow=none;endFill=0;" edge="1" parent="1" source="Tl0cSTcsKH_NLsfrjkij-127" target="Tl0cSTcsKH_NLsfrjkij-8">
          <mxGeometry relative="1" as="geometry" />
        </mxCell>
        <mxCell id="Tl0cSTcsKH_NLsfrjkij-127" value="&lt;b&gt;Id Funcionario&lt;/b&gt;" style="ellipse;whiteSpace=wrap;html=1;align=center;" vertex="1" parent="1">
          <mxGeometry x="50" y="490" width="100" height="40" as="geometry" />
        </mxCell>
        <mxCell id="Tl0cSTcsKH_NLsfrjkij-139" style="edgeStyle=orthogonalEdgeStyle;rounded=0;orthogonalLoop=1;jettySize=auto;html=1;exitX=1;exitY=0.5;exitDx=0;exitDy=0;entryX=0;entryY=1;entryDx=0;entryDy=0;endArrow=none;endFill=0;" edge="1" parent="1" source="Tl0cSTcsKH_NLsfrjkij-128" target="Tl0cSTcsKH_NLsfrjkij-8">
          <mxGeometry relative="1" as="geometry" />
        </mxCell>
        <mxCell id="Tl0cSTcsKH_NLsfrjkij-128" value="Nome" style="ellipse;whiteSpace=wrap;html=1;align=center;" vertex="1" parent="1">
          <mxGeometry x="50" y="530" width="100" height="40" as="geometry" />
        </mxCell>
        <mxCell id="Tl0cSTcsKH_NLsfrjkij-140" style="edgeStyle=orthogonalEdgeStyle;rounded=0;orthogonalLoop=1;jettySize=auto;html=1;exitX=1;exitY=0.5;exitDx=0;exitDy=0;entryX=0.145;entryY=1.007;entryDx=0;entryDy=0;entryPerimeter=0;endArrow=none;endFill=0;" edge="1" parent="1" source="Tl0cSTcsKH_NLsfrjkij-129" target="Tl0cSTcsKH_NLsfrjkij-8">
          <mxGeometry relative="1" as="geometry" />
        </mxCell>
        <mxCell id="Tl0cSTcsKH_NLsfrjkij-129" value="CPF" style="ellipse;whiteSpace=wrap;html=1;align=center;" vertex="1" parent="1">
          <mxGeometry x="50" y="570" width="100" height="40" as="geometry" />
        </mxCell>
        <mxCell id="Tl0cSTcsKH_NLsfrjkij-143" style="edgeStyle=orthogonalEdgeStyle;rounded=0;orthogonalLoop=1;jettySize=auto;html=1;exitX=1;exitY=0.5;exitDx=0;exitDy=0;endArrow=none;endFill=0;" edge="1" parent="1" source="Tl0cSTcsKH_NLsfrjkij-130" target="Tl0cSTcsKH_NLsfrjkij-8">
          <mxGeometry relative="1" as="geometry" />
        </mxCell>
        <mxCell id="Tl0cSTcsKH_NLsfrjkij-130" value="Telefone" style="ellipse;whiteSpace=wrap;html=1;align=center;" vertex="1" parent="1">
          <mxGeometry x="50" y="690" width="100" height="40" as="geometry" />
        </mxCell>
        <mxCell id="Tl0cSTcsKH_NLsfrjkij-141" style="edgeStyle=orthogonalEdgeStyle;rounded=0;orthogonalLoop=1;jettySize=auto;html=1;exitX=1;exitY=0.5;exitDx=0;exitDy=0;entryX=0.25;entryY=1;entryDx=0;entryDy=0;endArrow=none;endFill=0;" edge="1" parent="1" source="Tl0cSTcsKH_NLsfrjkij-131" target="Tl0cSTcsKH_NLsfrjkij-8">
          <mxGeometry relative="1" as="geometry" />
        </mxCell>
        <mxCell id="Tl0cSTcsKH_NLsfrjkij-131" value="E-mail" style="ellipse;whiteSpace=wrap;html=1;align=center;" vertex="1" parent="1">
          <mxGeometry x="50" y="610" width="100" height="40" as="geometry" />
        </mxCell>
        <mxCell id="Tl0cSTcsKH_NLsfrjkij-142" style="edgeStyle=orthogonalEdgeStyle;rounded=0;orthogonalLoop=1;jettySize=auto;html=1;exitX=1;exitY=0.5;exitDx=0;exitDy=0;entryX=0.377;entryY=0.98;entryDx=0;entryDy=0;entryPerimeter=0;endArrow=none;endFill=0;" edge="1" parent="1" source="Tl0cSTcsKH_NLsfrjkij-132" target="Tl0cSTcsKH_NLsfrjkij-8">
          <mxGeometry relative="1" as="geometry" />
        </mxCell>
        <mxCell id="Tl0cSTcsKH_NLsfrjkij-132" value="EndereÃ§o" style="ellipse;whiteSpace=wrap;html=1;align=center;" vertex="1" parent="1">
          <mxGeometry x="50" y="650" width="100" height="40" as="geometry" />
        </mxCell>
        <mxCell id="Tl0cSTcsKH_NLsfrjkij-154" style="edgeStyle=orthogonalEdgeStyle;rounded=0;orthogonalLoop=1;jettySize=auto;html=1;exitX=1;exitY=0;exitDx=0;exitDy=0;entryX=0;entryY=0.5;entryDx=0;entryDy=0;endArrow=none;endFill=0;" edge="1" parent="1" source="Tl0cSTcsKH_NLsfrjkij-146" target="Tl0cSTcsKH_NLsfrjkij-7">
          <mxGeometry relative="1" as="geometry" />
        </mxCell>
        <mxCell id="Tl0cSTcsKH_NLsfrjkij-146" value="&lt;b&gt;Id Professor&lt;/b&gt;" style="ellipse;whiteSpace=wrap;html=1;align=center;" vertex="1" parent="1">
          <mxGeometry x="350" y="410" width="100" height="40" as="geometry" />
        </mxCell>
        <mxCell id="Tl0cSTcsKH_NLsfrjkij-155" style="edgeStyle=orthogonalEdgeStyle;rounded=0;orthogonalLoop=1;jettySize=auto;html=1;exitX=1;exitY=0.5;exitDx=0;exitDy=0;entryX=0.13;entryY=1.038;entryDx=0;entryDy=0;entryPerimeter=0;endArrow=none;endFill=0;" edge="1" parent="1" source="Tl0cSTcsKH_NLsfrjkij-148" target="Tl0cSTcsKH_NLsfrjkij-7">
          <mxGeometry relative="1" as="geometry" />
        </mxCell>
        <mxCell id="Tl0cSTcsKH_NLsfrjkij-148" value="Nome" style="ellipse;whiteSpace=wrap;html=1;align=center;" vertex="1" parent="1">
          <mxGeometry x="350" y="450" width="100" height="40" as="geometry" />
        </mxCell>
        <mxCell id="Tl0cSTcsKH_NLsfrjkij-156" style="edgeStyle=orthogonalEdgeStyle;rounded=0;orthogonalLoop=1;jettySize=auto;html=1;exitX=1;exitY=0.5;exitDx=0;exitDy=0;entryX=0.337;entryY=1.019;entryDx=0;entryDy=0;entryPerimeter=0;endArrow=none;endFill=0;" edge="1" parent="1" source="Tl0cSTcsKH_NLsfrjkij-150" target="Tl0cSTcsKH_NLsfrjkij-7">
          <mxGeometry relative="1" as="geometry" />
        </mxCell>
        <mxCell id="Tl0cSTcsKH_NLsfrjkij-150" value="CPF" style="ellipse;whiteSpace=wrap;html=1;align=center;" vertex="1" parent="1">
          <mxGeometry x="350" y="490" width="100" height="40" as="geometry" />
        </mxCell>
        <mxCell id="Tl0cSTcsKH_NLsfrjkij-159" style="edgeStyle=orthogonalEdgeStyle;rounded=0;orthogonalLoop=1;jettySize=auto;html=1;exitX=1;exitY=0.5;exitDx=0;exitDy=0;entryX=1;entryY=1;entryDx=0;entryDy=0;endArrow=none;endFill=0;" edge="1" parent="1" source="Tl0cSTcsKH_NLsfrjkij-151" target="Tl0cSTcsKH_NLsfrjkij-7">
          <mxGeometry relative="1" as="geometry" />
        </mxCell>
        <mxCell id="Tl0cSTcsKH_NLsfrjkij-151" value="Telefone" style="ellipse;whiteSpace=wrap;html=1;align=center;" vertex="1" parent="1">
          <mxGeometry x="350" y="610" width="100" height="40" as="geometry" />
        </mxCell>
        <mxCell id="Tl0cSTcsKH_NLsfrjkij-157" style="edgeStyle=orthogonalEdgeStyle;rounded=0;orthogonalLoop=1;jettySize=auto;html=1;exitX=1;exitY=0.5;exitDx=0;exitDy=0;entryX=0.552;entryY=1.001;entryDx=0;entryDy=0;entryPerimeter=0;endArrow=none;endFill=0;" edge="1" parent="1" source="Tl0cSTcsKH_NLsfrjkij-152" target="Tl0cSTcsKH_NLsfrjkij-7">
          <mxGeometry relative="1" as="geometry" />
        </mxCell>
        <mxCell id="Tl0cSTcsKH_NLsfrjkij-152" value="E-mail" style="ellipse;whiteSpace=wrap;html=1;align=center;" vertex="1" parent="1">
          <mxGeometry x="350" y="530" width="100" height="40" as="geometry" />
        </mxCell>
        <mxCell id="Tl0cSTcsKH_NLsfrjkij-158" style="edgeStyle=orthogonalEdgeStyle;rounded=0;orthogonalLoop=1;jettySize=auto;html=1;exitX=1;exitY=0.5;exitDx=0;exitDy=0;entryX=0.75;entryY=1;entryDx=0;entryDy=0;endArrow=none;endFill=0;" edge="1" parent="1" source="Tl0cSTcsKH_NLsfrjkij-153" target="Tl0cSTcsKH_NLsfrjkij-7">
          <mxGeometry relative="1" as="geometry" />
        </mxCell>
        <mxCell id="Tl0cSTcsKH_NLsfrjkij-153" value="EndereÃ§o" style="ellipse;whiteSpace=wrap;html=1;align=center;" vertex="1" parent="1">
          <mxGeometry x="350" y="570" width="100" height="40" as="geometry" />
        </mxCell>
        <mxCell id="Tl0cSTcsKH_NLsfrjkij-163" style="edgeStyle=orthogonalEdgeStyle;rounded=0;orthogonalLoop=1;jettySize=auto;html=1;exitX=0;exitY=0.5;exitDx=0;exitDy=0;entryX=1;entryY=0.5;entryDx=0;entryDy=0;endArrow=none;endFill=0;" edge="1" parent="1" source="Tl0cSTcsKH_NLsfrjkij-160" target="Tl0cSTcsKH_NLsfrjkij-9">
          <mxGeometry relative="1" as="geometry" />
        </mxCell>
        <mxCell id="Tl0cSTcsKH_NLsfrjkij-160" value="&lt;b&gt;Cod Sala&lt;/b&gt;" style="ellipse;whiteSpace=wrap;html=1;align=center;" vertex="1" parent="1">
          <mxGeometry x="800" y="380" width="100" height="40" as="geometry" />
        </mxCell>
        <mxCell id="Tl0cSTcsKH_NLsfrjkij-161" value="DescriÃ§Ã£o" style="ellipse;whiteSpace=wrap;html=1;align=center;" vertex="1" parent="1">
          <mxGeometry x="800" y="420" width="100" height="40" as="geometry" />
        </mxCell>
        <mxCell id="Tl0cSTcsKH_NLsfrjkij-165" value="&lt;b&gt;Cod Departamento&lt;/b&gt;" style="ellipse;whiteSpace=wrap;html=1;align=center;" vertex="1" parent="1">
          <mxGeometry x="800" y="50" width="100" height="40" as="geometry" />
        </mxCell>
        <mxCell id="Tl0cSTcsKH_NLsfrjkij-166" value="Nome" style="ellipse;whiteSpace=wrap;html=1;align=center;" vertex="1" parent="1">
          <mxGeometry x="800" y="90" width="100" height="40" as="geometry" />
        </mxCell>
        <mxCell id="Tl0cSTcsKH_NLsfrjkij-169" value="&lt;b&gt;Id Turma&lt;/b&gt;" style="ellipse;whiteSpace=wrap;html=1;align=center;" vertex="1" parent="1">
          <mxGeometry x="610" y="190" width="100" height="40" as="geometry" />
        </mxCell>
        <mxCell id="Tl0cSTcsKH_NLsfrjkij-170" value="PerÃ­odo" style="ellipse;whiteSpace=wrap;html=1;align=center;" vertex="1" parent="1">
          <mxGeometry x="610" y="230" width="100" height="40" as="geometry" />
        </mxCell>
        <mxCell id="Tl0cSTcsKH_NLsfrjkij-182" style="edgeStyle=orthogonalEdgeStyle;rounded=0;orthogonalLoop=1;jettySize=auto;html=1;exitX=1;exitY=0.5;exitDx=0;exitDy=0;entryX=0;entryY=0.5;entryDx=0;entryDy=0;endArrow=none;endFill=0;" edge="1" parent="1" source="Tl0cSTcsKH_NLsfrjkij-180" target="Tl0cSTcsKH_NLsfrjkij-5">
          <mxGeometry relative="1" as="geometry" />
        </mxCell>
        <mxCell id="Tl0cSTcsKH_NLsfrjkij-180" value="&lt;b&gt;Id MatrÃ­cula&lt;/b&gt;" style="ellipse;whiteSpace=wrap;html=1;align=center;" vertex="1" parent="1">
          <mxGeometry x="45" y="250" width="100" height="40" as="geometry" />
        </mxCell>
        <mxCell id="Tl0cSTcsKH_NLsfrjkij-189" style="edgeStyle=orthogonalEdgeStyle;rounded=0;orthogonalLoop=1;jettySize=auto;html=1;exitX=1;exitY=0.5;exitDx=0;exitDy=0;entryX=0.013;entryY=0.381;entryDx=0;entryDy=0;entryPerimeter=0;endArrow=none;endFill=0;" edge="1" parent="1" source="Tl0cSTcsKH_NLsfrjkij-185" target="Tl0cSTcsKH_NLsfrjkij-42">
          <mxGeometry relative="1" as="geometry" />
        </mxCell>
        <mxCell id="Tl0cSTcsKH_NLsfrjkij-185" value="&lt;b&gt;Id Curso&lt;/b&gt;" style="ellipse;whiteSpace=wrap;html=1;align=center;" vertex="1" parent="1">
          <mxGeometry x="50" y="35" width="100" height="40" as="geometry" />
        </mxCell>
        <mxCell id="Tl0cSTcsKH_NLsfrjkij-190" style="edgeStyle=orthogonalEdgeStyle;rounded=0;orthogonalLoop=1;jettySize=auto;html=1;exitX=1;exitY=0.5;exitDx=0;exitDy=0;entryX=0;entryY=1;entryDx=0;entryDy=0;endArrow=none;endFill=0;" edge="1" parent="1" source="Tl0cSTcsKH_NLsfrjkij-186" target="Tl0cSTcsKH_NLsfrjkij-42">
          <mxGeometry relative="1" as="geometry" />
        </mxCell>
        <mxCell id="Tl0cSTcsKH_NLsfrjkij-186" value="Nome" style="ellipse;whiteSpace=wrap;html=1;align=center;" vertex="1" parent="1">
          <mxGeometry x="50" y="75" width="100" height="40" as="geometry" />
        </mxCell>
        <mxCell id="Tl0cSTcsKH_NLsfrjkij-195" style="edgeStyle=orthogonalEdgeStyle;rounded=0;orthogonalLoop=1;jettySize=auto;html=1;exitX=1;exitY=0.5;exitDx=0;exitDy=0;entryX=0;entryY=0.5;entryDx=0;entryDy=0;endArrow=none;endFill=0;" edge="1" parent="1" source="Tl0cSTcsKH_NLsfrjkij-192" target="Tl0cSTcsKH_NLsfrjkij-6">
          <mxGeometry relative="1" as="geometry" />
        </mxCell>
        <mxCell id="Tl0cSTcsKH_NLsfrjkij-192" value="&lt;b&gt;Id Disciplina&lt;/b&gt;" style="ellipse;whiteSpace=wrap;html=1;align=center;" vertex="1" parent="1">
          <mxGeometry x="335" y="80" width="100" height="40" as="geometry" />
        </mxCell>
        <mxCell id="Tl0cSTcsKH_NLsfrjkij-196" style="edgeStyle=orthogonalEdgeStyle;rounded=0;orthogonalLoop=1;jettySize=auto;html=1;exitX=1;exitY=0.5;exitDx=0;exitDy=0;endArrow=none;endFill=0;" edge="1" parent="1" source="Tl0cSTcsKH_NLsfrjkij-193">
          <mxGeometry relative="1" as="geometry">
            <mxPoint x="455" y="120" as="targetPoint" />
          </mxGeometry>
        </mxCell>
        <mxCell id="Tl0cSTcsKH_NLsfrjkij-193" value="Nome" style="ellipse;whiteSpace=wrap;html=1;align=center;" vertex="1" parent="1">
          <mxGeometry x="335" y="120" width="100" height="40" as="geometry" />
        </mxCell>
        <mxCell id="Tl0cSTcsKH_NLsfrjkij-197" style="edgeStyle=orthogonalEdgeStyle;rounded=0;orthogonalLoop=1;jettySize=auto;html=1;exitX=1;exitY=0.5;exitDx=0;exitDy=0;entryX=0.25;entryY=1;entryDx=0;entryDy=0;endArrow=none;endFill=0;" edge="1" parent="1" source="Tl0cSTcsKH_NLsfrjkij-194" target="Tl0cSTcsKH_NLsfrjkij-6">
          <mxGeometry relative="1" as="geometry" />
        </mxCell>
        <mxCell id="Tl0cSTcsKH_NLsfrjkij-194" value="CrÃ©ditos" style="ellipse;whiteSpace=wrap;html=1;align=center;" vertex="1" parent="1">
          <mxGeometry x="335" y="160" width="100" height="40" as="geometry" />
        </mxCell>
        <mxCell id="Tl0cSTcsKH_NLsfrjkij-209" style="edgeStyle=orthogonalEdgeStyle;rounded=0;orthogonalLoop=1;jettySize=auto;html=1;exitX=0;exitY=0.5;exitDx=0;exitDy=0;entryX=1;entryY=0.5;entryDx=0;entryDy=0;endArrow=none;endFill=0;" edge="1" parent="1" source="Tl0cSTcsKH_NLsfrjkij-201" target="Tl0cSTcsKH_NLsfrjkij-207">
          <mxGeometry relative="1" as="geometry" />
        </mxCell>
        <mxCell id="Tl0cSTcsKH_NLsfrjkij-211" style="edgeStyle=orthogonalEdgeStyle;rounded=0;orthogonalLoop=1;jettySize=auto;html=1;exitX=1;exitY=0.5;exitDx=0;exitDy=0;entryX=0;entryY=0.5;entryDx=0;entryDy=0;endArrow=none;endFill=0;" edge="1" parent="1" source="Tl0cSTcsKH_NLsfrjkij-201" target="Tl0cSTcsKH_NLsfrjkij-208">
          <mxGeometry relative="1" as="geometry" />
        </mxCell>
        <mxCell id="Tl0cSTcsKH_NLsfrjkij-201" value="Matr_Turma" style="whiteSpace=wrap;html=1;align=center;" vertex="1" parent="1">
          <mxGeometry x="314" y="245" width="100" height="40" as="geometry" />
        </mxCell>
        <mxCell id="Tl0cSTcsKH_NLsfrjkij-210" style="edgeStyle=orthogonalEdgeStyle;rounded=0;orthogonalLoop=1;jettySize=auto;html=1;exitX=0;exitY=0.5;exitDx=0;exitDy=0;entryX=1;entryY=0.5;entryDx=0;entryDy=0;endArrow=none;endFill=0;" edge="1" parent="1" source="Tl0cSTcsKH_NLsfrjkij-207" target="Tl0cSTcsKH_NLsfrjkij-5">
          <mxGeometry relative="1" as="geometry" />
        </mxCell>
        <mxCell id="Tl0cSTcsKH_NLsfrjkij-207" value="" style="shape=rhombus;perimeter=rhombusPerimeter;whiteSpace=wrap;html=1;align=center;" vertex="1" parent="1">
          <mxGeometry x="265" y="255" width="30" height="20" as="geometry" />
        </mxCell>
        <mxCell id="Tl0cSTcsKH_NLsfrjkij-212" style="edgeStyle=orthogonalEdgeStyle;rounded=0;orthogonalLoop=1;jettySize=auto;html=1;exitX=1;exitY=0.5;exitDx=0;exitDy=0;entryX=0;entryY=0.5;entryDx=0;entryDy=0;endArrow=none;endFill=0;" edge="1" parent="1" source="Tl0cSTcsKH_NLsfrjkij-208" target="Tl0cSTcsKH_NLsfrjkij-1">
          <mxGeometry relative="1" as="geometry" />
        </mxCell>
        <mxCell id="Tl0cSTcsKH_NLsfrjkij-208" value="" style="shape=rhombus;perimeter=rhombusPerimeter;whiteSpace=wrap;html=1;align=center;" vertex="1" parent="1">
          <mxGeometry x="428.5" y="255" width="30" height="20" as="geometry" />
        </mxCell>
        <mxCell id="Tl0cSTcsKH_NLsfrjkij-213" value="N" style="text;html=1;align=center;verticalAlign=middle;resizable=0;points=[];autosize=1;strokeColor=none;fillColor=none;" vertex="1" parent="1">
          <mxGeometry x="245" y="245" width="30" height="30" as="geometry" />
        </mxCell>
        <mxCell id="Tl0cSTcsKH_NLsfrjkij-214" value="1" style="text;html=1;align=center;verticalAlign=middle;resizable=0;points=[];autosize=1;strokeColor=none;fillColor=none;" vertex="1" parent="1">
          <mxGeometry x="285" y="245" width="30" height="30" as="geometry" />
        </mxCell>
        <mxCell id="Tl0cSTcsKH_NLsfrjkij-215" value="1" style="text;html=1;align=center;verticalAlign=middle;resizable=0;points=[];autosize=1;strokeColor=none;fillColor=none;" vertex="1" parent="1">
          <mxGeometry x="405" y="245" width="30" height="30" as="geometry" />
        </mxCell>
        <mxCell id="Tl0cSTcsKH_NLsfrjkij-216" value="N" style="text;html=1;align=center;verticalAlign=middle;resizable=0;points=[];autosize=1;strokeColor=none;fillColor=none;" vertex="1" parent="1">
          <mxGeometry x="450" y="245" width="30" height="30" as="geometry" />
        </mxCell>
      </root>
    </mxGraphModel>
  </diagram>
</mxfile>
